<?xml version="1.0" standalone="no"?>
<!DOCTYPE svg PUBLIC "-//W3C//DTD SVG 20010904//EN"
 "http://www.w3.org/TR/2001/REC-SVG-20010904/DTD/svg10.dtd">
<svg version="1.0" xmlns="http://www.w3.org/2000/svg"
 width="600.000000pt" height="600.000000pt" viewBox="0 0 600.000000 600.000000"
 preserveAspectRatio="xMidYMid meet">
<metadata>
Created by potrace 1.11, written by Peter Selinger 2001-2013
</metadata>
<g transform="translate(0.000000,600.000000) scale(0.100000,-0.100000)"
fill="#000000" stroke="none">
<path d="M2763 4783 c-7 -3 -13 -19 -13 -36 0 -23 3 -28 9 -18 5 8 7 21 3 29
-3 10 -1 13 6 8 13 -8 5 -97 -10 -107 -11 -7 -11 -343 -2 -1171 l7 -567 -39
-35 c-21 -20 -42 -36 -46 -36 -3 0 -12 -16 -18 -36 -21 -62 -3 -85 113 -143
93 -45 112 -51 212 -61 61 -7 227 -13 370 -15 306 -4 534 -13 590 -26 22 -5
63 -9 92 -9 28 0 79 -7 112 -16 58 -14 130 -24 179 -24 19 0 21 -2 10 -13 -7
-8 -25 -17 -40 -20 -38 -10 -115 -78 -115 -102 0 -11 -6 -47 -13 -79 l-12 -59
38 -35 c64 -58 98 -70 220 -78 l112 -7 66 34 c38 19 69 42 73 54 3 11 5 50 4
87 -2 61 -5 70 -37 104 -19 21 -34 41 -34 44 0 4 17 7 39 8 97 4 938 63 1033
73 182 18 274 48 266 87 -3 9 -11 16 -19 14 -16 -4 -10 3 44 42 l37 27 0 434
0 433 -37 13 -37 12 37 21 37 21 0 447 0 446 -52 14 c-63 16 -276 14 -885 -6
l-416 -15 -117 80 c-65 43 -120 79 -123 79 -6 0 -15 -122 -27 -395 -15 -331
-43 -875 -61 -1185 -13 -211 -32 -270 -28 -88 l2 118 -48 120 -48 120 -434 -2
-433 -3 0 61 0 61 203 6 c111 4 311 7 443 7 l242 0 7 197 7 197 -48 98 -48 98
-404 0 c-364 0 -404 2 -398 16 3 9 6 36 6 60 l0 44 489 0 489 0 6 103 c3 56 8
155 12 220 l6 117 -559 0 c-546 0 -689 5 -648 21 19 7 19 8 1 8 -12 1 -16 6
-12 16 4 11 -2 15 -22 16 l-27 1 25 7 25 7 -28 7 c-15 4 -25 12 -22 17 7 11
-2 12 -75 12 -32 0 -21 3 40 13 l85 12 -167 2 c-113 1 -168 -3 -168 -10 0 -5
4 -8 8 -5 5 3 22 1 38 -4 l29 -8 -35 -3 c-26 -2 -19 -4 25 -9 l60 -7 -62 -1
c-56 -2 -62 0 -70 22 -4 12 -14 21 -20 19z m113 -60 c-15 -4 -16 -7 -5 -13 21
-14 -36 -24 -60 -10 -20 10 -21 8 -23 -27 l-1 -38 -4 33 c-7 55 0 62 59 61 29
-1 44 -4 34 -6z m-21 -53 c3 -6 -4 -10 -17 -10 -18 0 -20 2 -8 10 19 12 18 12
25 0z m2525 -572 c0 -7 -9 -32 -19 -55 -20 -42 -76 -84 -132 -97 l-26 -6 4 73
c3 39 6 78 8 85 3 8 29 12 85 12 57 0 80 -4 80 -12z m-810 -628 c0 -5 -5 -10
-11 -10 -5 0 -7 5 -4 10 3 6 8 10 11 10 2 0 4 -4 4 -10z m0 -40 c0 -5 -8 -10
-17 -10 -15 0 -16 2 -3 10 19 12 20 12 20 0z m800 -96 c0 -3 -10 -20 -22 -36
-24 -35 -102 -74 -167 -84 l-44 -7 6 33 c4 18 7 45 7 61 l0 28 78 4 c42 1 92
4 110 5 17 1 32 -1 32 -4z m-947 -861 c-7 -2 -21 -2 -30 0 -10 3 -4 5 12 5 17
0 24 -2 18 -5z m-147 -25 c-11 -16 -13 -25 -4 -35 7 -9 7 -13 0 -13 -21 0 -25
43 -6 57 25 18 27 16 10 -9z m74 18 c0 -2 -7 -7 -16 -10 -8 -3 -12 -2 -9 4 6
10 25 14 25 6z m98 -13 c-16 -2 -40 -2 -55 0 -16 2 -3 4 27 4 30 0 43 -2 28
-4z m59 -9 c-3 -3 -12 -4 -19 -1 -8 3 -5 6 6 6 11 1 17 -2 13 -5z m-19 -99
c40 3 79 8 87 12 8 3 15 0 15 -6 0 -6 -7 -11 -16 -11 -28 0 -44 -26 -38 -59 4
-17 3 -50 0 -73 l-6 -43 -98 6 c-53 4 -109 7 -124 8 -27 1 -28 3 -28 56 0 32
7 69 16 87 16 30 15 31 -5 25 -12 -3 -21 -1 -21 3 0 15 23 16 84 3 38 -9 88
-12 134 -8z"/>
<path d="M66 4676 c-16 -7 -25 -15 -20 -18 5 -3 3 -3 -4 -2 -43 11 -42 19 -42
-500 l0 -491 69 -220 c185 -591 252 -807 273 -879 15 -53 29 -81 40 -84 9 -2
19 -10 22 -17 3 -9 36 -16 98 -21 116 -10 117 -10 211 28 l77 32 48 -46 47
-46 120 10 c158 13 331 3 420 -23 39 -11 77 -22 85 -23 8 -2 40 -8 70 -14 30
-6 123 -16 205 -22 83 -6 186 -13 230 -16 56 -5 107 -1 170 11 105 20 193 14
241 -16 35 -21 142 -38 258 -40 60 -1 85 4 137 26 62 27 104 60 95 74 -3 4 -6
34 -7 67 -2 45 -8 66 -26 87 -12 16 -23 33 -23 38 0 6 -20 19 -45 30 -66 29
-190 29 -274 0 l-63 -22 -80 27 c-71 23 -79 29 -74 48 2 11 21 111 41 221 56
315 74 410 105 565 16 80 70 363 120 630 50 267 93 495 96 506 5 18 1 22 -20
22 -15 0 -29 -5 -33 -11 -3 -6 -1 -7 5 -3 7 4 12 1 12 -8 0 -9 -3 -16 -8 -16
-4 0 -38 -29 -75 -64 l-68 -65 -157 6 c-86 3 -179 6 -207 7 -27 1 -83 3 -124
4 -65 2 -72 4 -61 17 9 11 16 13 24 5 5 -5 15 -10 20 -10 6 0 3 7 -8 15 -16
12 -22 11 -50 -8 -17 -12 -32 -22 -33 -22 -1 -1 -15 -101 -32 -224 -16 -122
-31 -224 -33 -226 -2 -2 -37 107 -78 243 -120 402 -120 402 -133 399 -16 -3
-100 -58 -109 -71 -4 -6 -26 -10 -50 -10 -24 1 -37 -1 -30 -3 29 -11 10 -23
-25 -17 -48 8 -67 24 -30 24 24 0 27 3 25 31 -1 17 -7 33 -13 37 -5 4 4 9 20
13 17 3 -46 6 -138 5 -93 0 -158 2 -145 6 15 4 17 6 6 7 -22 1 -108 -40 -108
-52 0 -5 16 0 35 12 19 11 35 16 35 11 0 -5 -17 -17 -37 -26 -36 -15 -37 -16
-19 -30 17 -12 18 -14 3 -14 -9 0 -17 5 -17 10 0 7 -7 7 -21 0 -11 -7 -23 -9
-27 -6 -3 3 -1 6 4 6 6 0 18 6 29 13 14 11 15 16 5 22 -9 6 -11 4 -5 -5 6 -10
4 -12 -9 -7 -9 4 -14 3 -11 -2 5 -9 -32 -27 -48 -23 -5 1 -5 -3 -1 -9 5 -9 2
-10 -9 -6 -11 4 -14 2 -10 -8 4 -12 24 -14 99 -12 52 2 94 -1 94 -5 0 -5 -37
-9 -82 -8 -104 2 -106 2 -89 -9 9 -6 3 -10 -20 -13 -27 -4 -29 -3 -16 7 10 7
17 15 17 19 0 11 -18 6 -35 -10 -13 -13 -19 -14 -28 -5 -7 7 -7 11 -2 10 16
-3 45 12 45 24 0 5 -9 2 -20 -8 -11 -10 -20 -15 -20 -12 0 4 -17 -2 -38 -13
l-39 -20 -17 -113 c-10 -61 -20 -121 -23 -132 -4 -12 -29 70 -64 203 -31 123
-59 225 -61 227 -2 2 -122 6 -268 9 -211 5 -271 3 -294 -8z m1319 -64 c-3 -3
-11 0 -18 7 -9 10 -8 11 6 5 10 -3 15 -9 12 -12z m-290 -22 c-3 -5 -16 -10
-28 -9 -21 0 -21 1 -2 9 28 12 37 12 30 0z m20 -20 c-3 -5 -14 -10 -23 -10
-15 0 -15 2 -2 10 20 13 33 13 25 0z m272 4 c-3 -3 -12 -4 -19 -1 -8 3 -5 6 6
6 11 1 17 -2 13 -5z m-227 -31 c0 -15 -2 -16 -10 -3 -7 11 -10 11 -10 2 0 -7
-4 -10 -10 -7 -17 10 -11 25 10 25 12 0 20 -7 20 -17z m-132 0 c-10 -2 -26 -2
-35 0 -10 3 -2 5 17 5 19 0 27 -2 18 -5z m377 -33 c-3 -5 -10 -10 -16 -10 -5
0 -9 5 -9 10 0 6 7 10 16 10 8 0 12 -4 9 -10z m-350 -10 c-11 -5 -36 -8 -55
-8 l-35 1 40 7 c57 10 74 10 50 0z m283 -1430 c37 -114 106 -339 119 -383 4
-15 1 -18 -14 -14 -10 3 -67 13 -128 22 -138 20 -138 20 -126 42 9 16 27 105
77 381 9 52 20 90 24 85 4 -4 26 -64 48 -133z m1370 -465 c-7 -5 -140 -14
-135 -9 11 11 70 20 104 16 19 -3 33 -5 31 -7z m-51 -21 c-3 -3 -12 -4 -19 -1
-8 3 -5 6 6 6 11 1 17 -2 13 -5z m-136 -18 c-9 -11 -8 -18 4 -30 9 -9 12 -16
6 -16 -18 0 -31 36 -19 48 17 17 23 15 9 -2z m203 -68 c-5 -8 5 -9 34 -5 43 5
48 2 33 -22 -12 -19 -202 -24 -228 -6 -16 12 -11 13 40 13 32 -1 62 3 65 9 4
6 18 13 32 16 14 2 26 5 28 6 2 0 0 -4 -4 -11z m-97 -4 c-3 -3 -12 -4 -19 -1
-8 3 -5 6 6 6 11 1 17 -2 13 -5z m213 -39 c-7 -8 -17 -15 -23 -15 -6 0 -2 7 9
15 25 19 30 19 14 0z m-300 -25 c-14 -4 -19 -8 -11 -9 8 -1 11 -8 7 -18 -5
-16 -5 -16 8 0 12 16 18 17 38 6 14 -8 18 -14 10 -17 -6 -2 -10 -8 -6 -13 3
-5 -1 -9 -10 -9 -8 0 -17 6 -19 13 -4 7 -6 6 -6 -5 -2 -30 -36 -14 -37 18 -2
38 3 44 29 43 20 -1 20 -2 -3 -9z m90 -10 c-8 -5 -19 -10 -25 -10 -5 0 -3 5 5
10 8 5 20 10 25 10 6 0 3 -5 -5 -10z m198 5 c-2 -1 -13 -7 -25 -13 -16 -9 -22
-9 -26 2 -4 9 4 13 24 13 16 0 28 -1 27 -2z m-68 -15 c0 -5 -2 -10 -4 -10 -3
0 -8 5 -11 10 -3 6 -1 10 4 10 6 0 11 -4 11 -10z"/>
<path d="M2698 2483 c7 -3 16 -2 19 1 4 3 -2 6 -13 5 -11 0 -14 -3 -6 -6z"/>
<path d="M1459 4629 c-8 -4 -4 -9 10 -14 13 -4 25 -4 28 -1 4 3 12 1 19 -5 9
-7 19 -7 34 1 24 13 18 30 -11 30 -13 0 -18 -4 -13 -12 5 -7 3 -8 -7 -3 -18
12 -45 13 -60 4z"/>
<path d="M2153 4613 c9 -2 23 -2 30 0 6 3 -1 5 -18 5 -16 0 -22 -2 -12 -5z"/>
<path d="M2385 4591 c19 -8 19 -9 -3 -14 -18 -4 -18 -4 -2 -3 26 1 28 20 3 23
-15 2 -15 1 2 -6z"/>
<path d="M2124 4574 c-18 -14 -18 -15 4 -4 12 6 22 13 22 15 0 8 -5 6 -26 -11z"/>
<path d="M2203 4573 c9 -2 23 -2 30 0 6 3 -1 5 -18 5 -16 0 -22 -2 -12 -5z"/>
<path d="M2298 4573 c7 -3 16 -2 19 1 4 3 -2 6 -13 5 -11 0 -14 -3 -6 -6z"/>
<path d="M2044 4546 l-28 -23 23 -13 c18 -9 26 -9 35 1 8 9 8 10 -1 5 -7 -4
-21 -2 -30 3 -17 10 -15 12 16 15 8 0 15 9 17 19 3 22 1 22 -32 -7z"/>
<path d="M1989 4503 c-8 -9 -9 -14 -2 -10 6 4 13 2 15 -5 3 -8 7 -6 11 5 9 23
-8 30 -24 10z"/>
<path d="M2088 4453 c7 -3 16 -2 19 1 4 3 -2 6 -13 5 -11 0 -14 -3 -6 -6z"/>
<path d="M4994 2462 c2 -2 -5 -13 -17 -25 -14 -14 -17 -22 -8 -25 7 -2 19 4
26 14 20 27 18 10 -4 -34 -10 -20 -22 -55 -26 -77 -5 -23 -10 -33 -12 -22 -8
34 -21 16 -16 -23 4 -31 2 -41 -11 -46 -18 -7 -22 -34 -4 -34 6 0 19 -7 28
-15 9 -8 88 -40 176 -69 181 -62 261 -95 389 -162 84 -43 94 -46 150 -41 64 5
142 37 152 63 8 22 -5 30 -27 16 -28 -17 -37 -15 -78 18 -28 22 -60 34 -121
47 -45 9 -84 21 -86 27 -2 6 -6 28 -10 50 -3 21 -9 35 -12 32 -3 -3 -15 0 -27
6 -11 6 -32 13 -45 14 -43 5 -50 12 -49 49 l1 36 55 -6 c30 -3 58 -8 63 -11 5
-3 17 0 27 5 11 6 23 6 28 1 7 -7 128 -50 141 -50 1 0 3 17 3 38 0 30 5 42 23
51 25 14 92 103 92 123 0 8 -31 18 -84 27 l-85 15 -38 -44 c-38 -42 -38 -43
-91 -36 -28 4 -131 23 -227 42 -176 36 -284 54 -276 46z m58 -41 c-9 -16 -20
-27 -24 -25 -4 3 -5 -1 -2 -9 3 -8 1 -18 -5 -22 -13 -8 -15 -35 -2 -35 5 0 11
14 15 30 3 17 11 30 17 30 6 0 20 10 30 23 l20 22 -17 -35 c-9 -19 -22 -57
-28 -83 -12 -53 -29 -63 -35 -20 l-4 28 -6 -27 c-4 -20 -10 -25 -19 -19 -17
11 -6 97 15 114 8 7 24 22 35 35 28 29 30 28 10 -7z m78 -20 c-5 -11 -10 -22
-10 -25 0 -11 35 8 53 29 13 14 11 6 -7 -28 -13 -26 -28 -68 -32 -92 -5 -38
-9 -44 -21 -34 -7 7 -12 18 -9 25 3 7 1 16 -4 19 -6 4 -10 -5 -10 -18 0 -14
-6 -24 -15 -24 -12 0 -14 10 -9 51 8 60 19 86 38 86 8 0 16 7 20 15 3 8 8 15
11 15 3 0 1 -9 -5 -19z m88 -17 c-7 -15 -14 -21 -16 -15 -2 7 2 18 8 26 18 22
21 18 8 -11z m40 -9 c-6 -14 -13 -23 -15 -21 -5 5 15 46 22 46 3 0 -1 -11 -7
-25z m66 17 c-20 -13 -56 -89 -52 -108 5 -21 12 -11 22 39 4 15 11 27 17 27 6
0 7 -6 3 -12 -4 -7 -4 -10 1 -6 4 4 13 17 19 30 6 12 18 24 26 26 13 4 13 2
-1 -14 -9 -10 -19 -28 -23 -38 -5 -16 -4 -17 9 -6 8 7 15 9 15 5 0 -4 9 3 20
16 17 21 17 16 -5 -31 -14 -30 -25 -70 -25 -87 0 -22 -5 -33 -15 -33 -10 0
-14 10 -13 35 1 20 5 38 9 41 5 2 5 12 2 20 -9 24 -23 -4 -23 -48 0 -31 -3
-37 -21 -35 -16 1 -19 7 -16 24 2 13 0 23 -4 23 -5 0 -9 -10 -9 -23 0 -14 -6
-24 -15 -24 -10 0 -15 10 -14 31 1 45 23 111 37 111 6 0 19 10 27 23 9 12 22
22 28 22 8 0 9 -3 1 -8z m-126 -42 c3 -7 1 -10 -4 -7 -5 3 -10 -18 -12 -46 -4
-56 -9 -70 -23 -62 -12 8 -11 51 2 98 10 37 28 45 37 17z m28 -69 c-10 -54
-13 -61 -25 -48 -14 17 -8 85 11 121 19 35 27 -5 14 -73z m279 33 c8 -4 14
-17 13 -30 -2 -24 -4 -25 -58 -18 -81 10 -89 14 -79 43 9 22 13 23 59 17 28
-4 57 -9 65 -12z"/>
<path d="M5107 2353 c-10 -9 -8 -43 2 -43 5 0 9 11 9 25 0 27 -1 28 -11 18z"/>
<path d="M1291 2355 c-64 -14 -96 -30 -132 -66 -10 -10 -23 -19 -28 -19 -5 0
-8 -24 -7 -54 3 -58 3 -59 -69 -88 -61 -24 -72 -19 -79 35 -3 28 -12 57 -21
67 -8 9 -15 25 -15 36 0 40 -13 63 -40 74 -25 10 -37 8 -84 -13 -30 -14 -57
-23 -60 -19 -3 3 -6 -18 -6 -46 0 -29 -4 -52 -10 -52 -5 0 -25 -10 -43 -23
-19 -13 -70 -36 -113 -51 -81 -28 -135 -50 -166 -67 -10 -5 -24 -9 -32 -9 -17
0 -31 -33 -17 -38 6 -2 11 -13 11 -25 0 -18 -2 -19 -10 -7 -7 11 -10 11 -10 2
0 -7 -5 -10 -11 -6 -6 3 -8 15 -6 26 4 12 -2 29 -14 42 l-20 21 6 -27 c6 -24
4 -28 -13 -28 -13 0 -24 11 -33 33 -40 105 -39 98 -17 95 28 -4 48 -36 30 -47
-11 -7 -11 -9 2 -14 24 -9 27 7 11 47 -14 34 -14 36 4 36 23 0 45 -25 38 -43
-2 -7 5 -24 16 -37 16 -20 19 -21 13 -5 -27 71 -34 105 -21 105 20 0 47 -31
41 -46 -3 -8 -1 -14 5 -14 6 0 8 -4 5 -9 -3 -5 1 -14 9 -21 18 -15 19 -11 1
31 -26 65 -28 79 -12 79 22 0 48 -30 41 -49 -5 -12 -3 -13 5 -5 8 8 8 18 -1
38 -15 32 -8 41 20 26 13 -6 21 -21 21 -35 0 -14 5 -25 11 -25 5 0 7 -4 4 -10
-3 -5 -1 -10 4 -10 14 0 14 1 -4 43 -21 50 -19 64 8 65 12 0 51 12 86 27 60
25 64 25 76 8 16 -21 12 -25 -35 -43 -19 -7 -43 -20 -54 -29 -10 -9 -20 -15
-22 -13 -13 7 -33 0 -28 -11 2 -7 13 -13 24 -13 10 0 17 3 14 7 -2 4 24 19 58
33 35 16 64 23 67 17 8 -12 35 7 43 30 4 9 0 26 -8 38 -12 17 -19 19 -34 11
-23 -12 -30 -13 -30 -2 0 5 10 14 23 19 l22 11 -25 6 c-18 5 -50 -4 -110 -29
-46 -20 -89 -40 -95 -44 -5 -5 -55 -27 -110 -51 -55 -23 -116 -49 -135 -57
-19 -8 -44 -18 -55 -23 -24 -9 -52 -20 -122 -51 l-52 -22 25 -30 c20 -23 22
-32 12 -38 -7 -5 -8 -9 -2 -9 6 0 16 -12 23 -26 21 -46 21 -20 1 34 -24 62
-25 72 -6 72 17 0 48 -39 40 -52 -3 -4 -1 -8 5 -8 5 0 8 -9 6 -20 -2 -11 0
-18 4 -15 14 8 21 -21 8 -34 -6 -6 -19 -11 -28 -11 -26 0 -33 -18 -15 -36 17
-17 21 -50 7 -58 -5 -3 -12 5 -15 18 -4 17 -13 24 -26 23 -25 -2 -25 -4 0 -45
41 -66 76 -65 325 15 161 51 314 87 433 102 110 14 159 28 184 53 25 25 75 40
97 29 37 -20 146 -41 243 -47 l103 -6 95 41 c96 41 129 69 130 107 0 26 -31
56 -37 37 -3 -7 -16 -13 -29 -13 -13 0 -24 -4 -24 -9 0 -5 10 -7 23 -4 18 4
19 3 7 -6 -8 -6 -23 -11 -32 -11 -10 0 -18 -4 -18 -10 0 -5 -17 -17 -37 -27
-21 -9 -41 -21 -44 -26 -4 -5 -12 -6 -18 -3 -6 4 -11 3 -11 -3 0 -5 6 -11 13
-14 25 -9 -66 -19 -111 -12 -26 3 -66 6 -89 5 -23 0 -44 4 -48 10 -4 6 6 8 27
5 l33 -5 -29 10 c-16 5 -33 15 -37 22 -7 10 -9 10 -10 -2 -1 -8 -5 8 -8 35 -8
62 9 91 43 73 20 -11 20 -10 6 8 -8 10 -19 23 -25 27 -6 5 -1 6 10 2 48 -16
171 -17 239 -1 38 9 70 15 72 13 10 -10 -46 -42 -76 -45 -41 -3 -42 -4 -33
-30 8 -20 9 -20 68 8 33 16 62 27 64 25 2 -2 10 3 18 11 9 8 22 13 30 10 25
-10 25 21 -1 72 -29 58 -61 75 -145 77 -31 1 -63 4 -71 7 -8 4 -44 0 -79 -7z
m112 -32 c-7 -2 -19 -2 -25 0 -7 3 -2 5 12 5 14 0 19 -2 13 -5z m-693 -172 c0
-14 -50 -42 -62 -35 -7 4 -8 3 -4 -4 5 -8 0 -12 -13 -12 -10 0 -21 -4 -23 -9
-1 -4 -14 -12 -26 -16 -19 -5 -23 -4 -20 10 2 9 31 29 68 45 74 32 80 33 80
21z m-468 -71 c1 -14 9 -31 16 -38 18 -19 15 -42 -6 -42 -9 0 -22 12 -29 28
-26 59 -34 86 -29 99 8 20 43 -15 48 -47z m-73 20 c10 -5 21 -24 25 -41 3 -18
13 -40 21 -49 13 -14 13 -19 2 -28 -7 -6 -17 -8 -23 -4 -21 14 -65 132 -49
132 3 0 14 -4 24 -10z m-23 -58 c-3 -2 -14 1 -23 9 -10 7 -3 -2 15 -20 36 -37
42 -71 13 -71 -14 0 -24 16 -41 59 -26 71 -18 98 17 56 13 -15 22 -30 19 -33z
m404 42 c0 -8 -4 -12 -10 -9 -5 3 -10 10 -10 16 0 5 5 9 10 9 6 0 10 -7 10
-16z m-30 -18 c0 -17 -32 -15 -38 2 -2 7 6 12 17 12 12 0 21 -6 21 -14z m-50
-20 c0 -8 -7 -16 -15 -20 -8 -3 -15 -4 -15 -2 0 3 -3 11 -6 20 -4 12 0 16 15
16 12 0 21 -6 21 -14z m-40 -15 c0 -3 -9 -12 -19 -18 -16 -10 -20 -9 -24 7 -3
11 0 21 7 23 13 5 36 -2 36 -12z m-100 -52 c0 -20 -24 -26 -35 -9 -4 6 -4 17
-1 25 7 20 36 7 36 -16z m-50 -13 c0 -21 -21 -31 -30 -15 -5 7 -6 17 -4 21 9
14 34 9 34 -6z m-50 -26 c0 -11 -6 -20 -14 -20 -18 0 -29 16 -21 30 11 18 35
11 35 -10z m-50 -26 c0 -28 -15 -32 -29 -6 -7 13 -7 22 1 30 16 16 28 5 28
-24z m-52 -24 c-1 -34 -13 -39 -28 -11 -15 29 -12 41 9 41 15 0 19 -7 19 -30z"/>
<path d="M1580 2181 c0 -6 4 -13 10 -16 6 -3 7 1 4 9 -7 18 -14 21 -14 7z"/>
<path d="M2675 2175 c-61 -17 -64 -18 -45 -4 11 8 8 9 -15 4 -16 -4 -54 -9
-85 -11 -103 -9 -196 -43 -255 -92 -41 -34 -54 -60 -55 -109 l0 -41 -91 -21
c-50 -12 -97 -21 -104 -21 -8 0 -26 16 -41 35 -17 23 -35 35 -51 35 -21 0
-242 -44 -908 -180 -200 -40 -359 -73 -695 -141 -162 -33 -303 -62 -312 -65
-17 -5 -18 -25 -18 -235 l0 -229 40 0 c43 0 70 5 382 74 190 41 198 42 204 23
4 -14 11 -17 27 -12 12 3 45 12 72 18 44 11 50 16 53 40 5 40 -26 126 -60 170
-27 35 -28 37 -8 37 11 0 23 -7 27 -16 4 -11 8 -12 13 -4 9 14 207 53 222 44
6 -4 19 -26 30 -50 10 -24 23 -44 29 -44 6 0 7 -4 4 -10 -3 -6 5 -10 19 -10
32 0 45 20 14 21 -13 1 4 7 37 15 76 17 78 17 72 0 -4 -10 -1 -13 8 -10 9 4
16 -3 21 -21 3 -14 4 -28 2 -30 -3 -3 -41 -10 -86 -17 -45 -6 -79 -14 -76 -17
9 -9 133 -7 127 2 -5 9 19 9 33 -1 6 -4 14 -14 17 -22 6 -13 3 26 -8 117 -5
37 14 36 39 -2 19 -29 20 -52 4 -57 -7 -3 -9 -12 -5 -22 4 -9 11 -14 17 -11
15 9 13 -88 -3 -108 -8 -11 -43 -23 -100 -34 -93 -17 -117 -30 -117 -67 0 -49
-30 -114 -58 -124 -39 -15 -163 -42 -190 -42 -25 0 -82 26 -95 44 -5 6 -5 0
-1 -14 11 -41 41 -76 80 -95 66 -31 139 -14 334 77 156 73 412 146 583 166 59
7 78 8 119 3 4 -1 22 -16 40 -35 58 -59 132 -77 329 -79 132 -2 137 -3 180
-31 24 -17 58 -45 74 -64 36 -40 69 -48 230 -58 l110 -6 60 37 c33 21 72 45
87 54 15 9 30 22 33 30 11 28 -11 30 -47 6 -20 -14 -41 -25 -47 -25 -5 0 -11
-3 -13 -7 -9 -21 -85 -61 -108 -58 -14 2 -81 9 -148 16 -143 14 -140 11 -142
125 -2 93 -2 96 11 88 8 -4 7 -9 -2 -16 -11 -8 -11 -9 1 -5 18 5 14 34 -6 54
-8 8 -12 19 -8 24 3 5 12 2 20 -6 21 -21 109 -45 163 -45 25 0 65 9 88 20 25
11 57 17 80 15 30 -3 34 -1 20 7 -18 9 -18 11 -1 29 20 22 42 26 24 4 -11 -13
-10 -14 4 -9 19 7 20 16 4 32 -9 9 -9 12 1 12 7 0 9 5 5 13 -6 9 -5 9 8 0 8
-7 18 -10 21 -7 3 4 9 -5 13 -20 7 -30 20 -34 27 -8 4 14 5 13 6 -4 1 -12 12
-26 27 -33 l26 -12 -21 33 c-12 18 -35 54 -51 79 -30 46 -57 60 -200 98 -15 4
-26 15 -28 28 -4 25 2 25 -170 -13 -63 -14 -124 -23 -137 -20 -19 5 -23 1 -29
-25 -3 -17 -6 -42 -6 -54 0 -19 -21 -33 -136 -89 -75 -37 -142 -68 -147 -69
-6 -1 -11 9 -11 23 -1 21 -8 27 -51 38 -27 7 -60 22 -72 34 -13 12 -23 17 -23
11 0 -19 -39 -2 -46 19 -4 15 -8 17 -14 8 -5 -9 -9 -9 -14 -1 -4 6 -15 11 -24
11 -14 0 -17 12 -19 73 -1 39 -8 90 -17 112 l-14 40 48 10 c27 6 52 13 56 18
21 21 22 3 2 -25 -19 -27 -22 -45 -23 -113 0 -84 14 -129 43 -140 33 -13 31
20 -3 53 -30 29 -35 40 -35 81 0 65 42 146 98 188 143 108 344 60 382 -90 15
-58 18 -65 19 -42 1 37 -25 107 -50 133 -13 14 -19 23 -13 19 7 -4 32 2 55 13
28 12 64 19 99 19 61 -1 53 -5 -31 -14 -31 -3 -65 -12 -75 -20 -18 -13 -18
-14 5 -34 13 -12 28 -21 33 -21 6 0 7 -30 3 -73 l-7 -72 84 5 c45 3 92 11 103
18 25 14 11 15 -76 1 -39 -6 -73 -9 -75 -6 -2 2 -2 12 2 21 4 11 18 16 43 16
47 0 130 27 156 51 25 23 70 15 60 -10 -4 -10 -3 -12 3 -6 6 6 13 29 17 53 6
39 5 44 -14 49 -42 11 -20 23 43 23 135 0 351 54 438 109 31 20 53 43 63 67 8
20 14 38 12 40 -1 2 -16 -9 -32 -24 -46 -42 -73 -57 -155 -85 -225 -77 -508
-74 -592 7 -13 12 -38 33 -56 45 -31 21 -38 23 -73 12 -22 -7 -37 -16 -35 -20
6 -9 -90 -32 -115 -28 -18 3 -52 28 -46 33 2 2 54 15 115 29 l112 25 68 -34
c107 -54 161 -66 296 -66 134 0 273 27 378 74 32 14 65 23 73 20 9 -4 26 3 41
16 19 19 24 34 24 71 0 33 -5 49 -16 53 -15 6 -327 -59 -434 -91 -102 -30
-129 -23 -188 50 -25 30 -30 42 -20 48 7 4 100 26 206 50 106 23 201 48 210
55 39 29 -24 25 -196 -11 -201 -43 -234 -47 -244 -31 -6 8 -8 7 -8 -1 0 -7 -4
-13 -10 -13 -23 0 -9 38 18 48 62 23 97 32 130 32 21 0 40 7 49 18 8 9 12 11
8 5 -9 -18 13 -17 135 8 143 29 147 33 64 59 -90 28 -194 34 -259 15z m65 -9
c0 -8 -4 -18 -10 -21 -5 -3 -7 0 -4 8 4 10 -3 13 -28 11 l-33 -3 30 8 c44 12
45 12 45 -3z m-183 -53 c-3 -10 -5 -4 -5 12 0 17 2 24 5 18 2 -7 2 -21 0 -30z
m20 -39 c-3 -3 -12 -4 -19 -1 -8 3 -5 6 6 6 11 1 17 -2 13 -5z m-347 -182 c0
-7 -58 -20 -175 -40 -58 -9 -13 13 58 30 82 18 117 22 117 10z m478 -89 c-10
-2 -28 -2 -40 0 -13 2 -5 4 17 4 22 1 32 -1 23 -4z m9 -19 c-3 -3 -12 -4 -19
-1 -8 3 -5 6 6 6 11 1 17 -2 13 -5z m-27 -14 c20 -6 21 -8 5 -8 -11 0 -29 3
-40 8 -25 11 1 11 35 0z m-17 -27 c-7 -2 -19 -2 -25 0 -7 3 -2 5 12 5 14 0 19
-2 13 -5z m-265 -82 c9 -5 -2 -10 -33 -14 -26 -4 -67 -16 -92 -27 -41 -18 -47
-18 -73 -5 -16 8 -39 15 -51 15 -25 0 -18 12 9 16 9 2 42 10 72 18 54 15 139
13 168 -3z m142 -71 c13 -9 13 -10 0 -9 -8 0 -24 4 -35 9 l-20 9 20 0 c11 0
27 -4 35 -9z m-876 -100 c14 0 36 -41 36 -66 0 -9 -5 -12 -12 -8 -10 6 -10 4
0 -7 16 -17 16 -90 -1 -113 -12 -16 -14 -12 -16 35 -1 30 -6 70 -10 89 -13 52
-21 97 -15 83 3 -7 11 -13 18 -13z m84 -29 c6 -16 7 -32 4 -36 -4 -4 -5 -33
-4 -66 3 -38 0 -59 -7 -59 -6 0 -11 17 -11 39 0 21 -7 58 -15 81 -8 23 -15 53
-15 67 0 20 3 22 19 14 10 -6 24 -24 29 -40z m-165 -19 l18 -27 -6 33 c-8 38
5 42 36 11 15 -15 19 -28 14 -46 -3 -14 -1 -31 6 -39 6 -8 8 -21 4 -31 -9 -20
-11 -30 -13 -55 -3 -34 -22 -18 -22 18 0 21 -4 33 -10 29 -5 -3 -10 -14 -10
-23 0 -9 -9 -28 -20 -42 l-20 -25 0 60 c-2 74 -10 98 -30 85 -12 -8 -12 -11 3
-28 9 -10 17 -29 17 -43 0 -37 -11 -69 -21 -63 -5 3 -9 0 -9 -6 0 -6 -4 -9 -8
-6 -5 3 -7 19 -4 37 3 22 1 30 -7 25 -6 -4 -11 -18 -11 -31 0 -13 -8 -31 -17
-41 -17 -17 -18 -14 -25 67 -4 46 -11 100 -16 120 -7 28 -6 36 3 35 35 -5 63
-76 30 -76 -8 0 -15 -5 -15 -12 0 -6 3 -9 6 -5 7 7 28 -12 37 -33 10 -27 8 26
-4 80 -13 63 -5 74 27 37 l24 -28 0 30 c0 36 17 34 43 -7z m-238 -12 c-3 -5 0
-12 6 -15 6 -4 15 -17 20 -29 8 -18 9 -17 5 8 -4 32 2 56 13 56 5 0 16 -16 27
-35 16 -31 17 -37 4 -45 -12 -8 -12 -11 3 -28 18 -20 22 -73 7 -107 -5 -12 -9
-14 -9 -6 -1 11 -5 10 -16 -5 -13 -18 -14 -16 -16 26 -2 36 -3 39 -6 13 -3
-20 -13 -38 -30 -48 l-25 -17 6 44 5 43 -12 -44 c-7 -26 -19 -45 -28 -46 -13
-2 -17 13 -23 84 -4 47 -9 101 -12 119 -8 41 14 44 39 5 l18 -28 -4 36 c-5 32
-3 36 14 32 10 -3 17 -9 14 -13z m1308 -117 c-7 -2 -21 -2 -30 0 -10 3 -4 5
12 5 17 0 24 -2 18 -5z m85 0 c-10 -2 -26 -2 -35 0 -10 3 -2 5 17 5 19 0 27
-2 18 -5z m-153 -15 c-11 -6 -33 -20 -49 -31 -20 -14 -27 -16 -24 -6 2 8 20
22 39 31 38 19 66 24 34 6z m176 -9 c19 -7 39 -16 44 -21 6 -5 -3 -4 -20 3
-16 6 -59 15 -95 19 l-65 7 51 2 c28 0 66 -4 85 -10z m-171 -16 c-19 -8 -41
-20 -47 -25 -8 -6 -13 -6 -13 -1 0 11 59 42 80 42 8 -1 -1 -7 -20 -16z"/>
<path d="M1590 1393 c1 -13 29 -47 35 -42 9 10 -8 49 -21 49 -8 0 -14 -3 -14
-7z"/>
<path d="M1400 1373 c0 -16 -5 -20 -20 -16 -25 7 -25 2 -1 -26 l20 -23 7 37
c3 20 4 39 0 42 -3 4 -6 -3 -6 -14z"/>
<path d="M1331 1363 c-1 -7 -10 -13 -21 -13 -11 0 -20 -4 -20 -10 0 -5 6 -7
13 -5 7 3 20 -7 29 -22 15 -23 17 -25 17 -8 -1 25 -17 75 -18 58z"/>
<path d="M1318 2163 c12 -2 32 -2 45 0 12 2 2 4 -23 4 -25 0 -35 -2 -22 -4z"/>
<path d="M2155 1550 c-3 -6 0 -10 8 -10 8 0 25 -9 38 -21 l24 -20 -25 14 c-14
8 -52 15 -84 16 -33 1 -64 5 -69 8 -6 4 -7 1 -2 -7 6 -10 4 -12 -9 -7 -11 4
-15 3 -11 -4 4 -6 0 -9 -8 -7 -9 2 -15 0 -14 -4 3 -9 -45 -58 -57 -58 -5 0 -1
7 10 15 18 14 18 14 -3 9 -20 -6 -41 -50 -28 -62 3 -3 5 2 5 11 0 10 3 17 8
17 4 0 8 -20 9 -44 1 -24 9 -57 19 -73 l18 -28 -22 19 c-12 11 -26 33 -31 50
-5 18 -10 23 -10 13 -2 -33 33 -77 77 -98 24 -12 45 -19 48 -16 3 3 -11 10
-30 17 l-36 11 19 37 c24 48 48 68 98 86 48 17 53 12 45 -46 -2 -22 -10 -38
-17 -38 -7 0 -15 -7 -19 -15 -3 -9 -16 -20 -28 -25 -21 -8 -20 -9 10 -9 47 -1
94 21 126 60 26 31 28 38 22 94 -4 40 -3 55 4 45 5 -8 10 -10 10 -5 0 33 -81
97 -95 75z m-48 -36 c-3 -3 -12 -4 -19 -1 -8 3 -5 6 6 6 11 1 17 -2 13 -5z"/>
<path d="M1114 1378 c10 -6 22 -6 26 -2 5 5 -3 10 -18 11 -22 1 -24 0 -8 -9z"/>
<path d="M2304 1356 c-3 -9 -3 -23 0 -33 8 -21 -80 -108 -131 -129 -19 -9 -33
-17 -30 -20 11 -11 98 40 131 76 52 57 67 92 50 108 -12 11 -15 10 -20 -2z"/>
<path d="M2246 1292 c-3 -5 1 -9 9 -9 8 0 12 4 9 9 -3 4 -7 8 -9 8 -2 0 -6 -4
-9 -8z"/>
<path d="M2912 1142 c-11 -25 -11 -25 4 -10 9 9 15 21 13 27 -2 6 -10 -2 -17
-17z"/>
<path d="M2735 1120 c-3 -5 -1 -10 4 -10 6 0 11 5 11 10 0 6 -2 10 -4 10 -3 0
-8 -4 -11 -10z"/>
</g>
</svg>
